<?xml version="1.0" encoding="utf-8"?>
<!-- Generator: Adobe Illustrator 27.5.0, SVG Export Plug-In . SVG Version: 6.00 Build 0)  -->
<svg version="1.1" xmlns="http://www.w3.org/2000/svg" xmlns:xlink="http://www.w3.org/1999/xlink" x="0px" y="0px"
	 viewBox="0 0 500 500" style="enable-background:new 0 0 500 500;" xml:space="preserve">
<g id="BACKGROUND">
</g>
<g id="OBJECTS">
	<g>
		<g>
			
				<text transform="matrix(1 0 0 1 112.9658 363.432)" style="fill:#9327E0; font-family:'Montserrat-Black'; font-size:42.6903px;">NERD LOGO</text>
			
				<text transform="matrix(1 0 0 1 153.9971 388.4084)" style="fill:#565656; font-family:'Montserrat-Medium'; font-size:21.1461px; letter-spacing:2;">TAGLINE HERE</text>
		</g>
		<g>
			<g>
				<linearGradient id="SVGID_1_" gradientUnits="userSpaceOnUse" x1="330.7496" y1="271.65" x2="378.8297" y2="271.65">
					<stop  offset="0" style="stop-color:#FF5F47"/>
					<stop  offset="1" style="stop-color:#FFAF66"/>
				</linearGradient>
				<path style="fill:url(#SVGID_1_);" d="M378.83,271.645c0,5.27-1.77,10.13-4.76,14.01c-4.2,5.48-10.82,9.01-18.26,9.01h-25.06
					v-9.12h9v-36.91h16.06c6.36,0,12.11,2.58,16.28,6.74C376.25,259.535,378.83,265.295,378.83,271.645z"/>
				
					<linearGradient id="SVGID_00000024705395502816838150000006217236062408394431_" gradientUnits="userSpaceOnUse" x1="-96.3185" y1="271.6469" x2="-73.308" y2="271.6469" gradientTransform="matrix(-1 0 0 1 268.9775 0)">
					<stop  offset="0" style="stop-color:#D9706D"/>
					<stop  offset="1" style="stop-color:#F34D3C"/>
				</linearGradient>
				<circle style="fill:url(#SVGID_00000024705395502816838150000006217236062408394431_);" cx="353.791" cy="271.647" r="11.505"/>
				<path style="opacity:0.14;fill:#6D1903;" d="M374.07,285.655c-4.2,5.48-10.82,9.01-18.26,9.01h-25.06v-9.12h9v-36.91h12.41
					v14.74C352.16,275.555,361.93,285.455,374.07,285.655z"/>
				<g style="opacity:0.48;">
					<path style="fill:#FFE8CC;" d="M372.972,273.147c-0.828,0-1.5-0.672-1.5-1.5c0-8.647-7.035-15.683-15.683-15.683
						c-0.828,0-1.5-0.672-1.5-1.5c0-0.828,0.672-1.5,1.5-1.5c10.302,0,18.683,8.381,18.683,18.683
						C374.472,272.475,373.8,273.147,372.972,273.147z"/>
				</g>
			</g>
			<g>
				
					<linearGradient id="SVGID_00000002370153050436196180000016226901925129794956_" gradientUnits="userSpaceOnUse" x1="121.4597" y1="271.65" x2="169.5396" y2="271.65">
					<stop  offset="0" style="stop-color:#FFAF66"/>
					<stop  offset="1" style="stop-color:#FF5F47"/>
				</linearGradient>
				<path style="fill:url(#SVGID_00000002370153050436196180000016226901925129794956_);" d="M169.54,285.545v9.12h-25.06
					c-9.87,0-18.3-6.22-21.56-14.96c-0.95-2.51-1.46-5.23-1.46-8.06c0-6.35,2.58-12.11,6.74-16.27c4.17-4.16,9.93-6.74,16.28-6.74
					h16.06v36.91H169.54z"/>
				
					<linearGradient id="SVGID_00000113341224890964455510000014063090416686529664_" gradientUnits="userSpaceOnUse" x1="134.9931" y1="271.6469" x2="158.0037" y2="271.6469">
					<stop  offset="0" style="stop-color:#D9706D"/>
					<stop  offset="1" style="stop-color:#F34D3C"/>
				</linearGradient>
				<circle style="fill:url(#SVGID_00000113341224890964455510000014063090416686529664_);" cx="146.498" cy="271.647" r="11.505"/>
				<path style="opacity:0.14;fill:#6D1903;" d="M169.54,285.545v9.12h-25.06c-9.87,0-18.3-6.22-21.56-14.96h8.482
					c8.339,0,15.098-6.76,15.098-15.098v-15.972h14.04v36.91H169.54z"/>
				<g style="opacity:0.48;">
					<path style="fill:#FFE8CC;" d="M146.102,254.464c0,0.828-0.672,1.5-1.5,1.5c-8.647,0-15.683,7.035-15.683,15.683
						c0,0.828-0.672,1.5-1.5,1.5c-0.828,0-1.5-0.672-1.5-1.5c0-10.302,8.381-18.683,18.683-18.683
						C145.43,252.964,146.102,253.636,146.102,254.464z"/>
				</g>
			</g>
			<g>
				
					<linearGradient id="SVGID_00000047774255947288231330000012491090036099205053_" gradientUnits="userSpaceOnUse" x1="155.7027" y1="144.1478" x2="129.7027" y2="108.1479">
					<stop  offset="0" style="stop-color:#7316FF"/>
					<stop  offset="0.5142" style="stop-color:#AE33E3"/>
					<stop  offset="1" style="stop-color:#E14CCA"/>
				</linearGradient>
				<path style="fill:url(#SVGID_00000047774255947288231330000012491090036099205053_);" d="M145.522,115.199v12.381
					c0,3.829,1.512,7.298,3.96,9.866h-30.656c0,7.906,6.409,14.316,14.316,14.316h12.381c6.365,0,11.753-4.157,13.615-9.902
					c0.234,0.011,0.464,0.035,0.701,0.035v-41.012C151.931,100.883,145.522,107.293,145.522,115.199z"/>
				<g>
					
						<linearGradient id="SVGID_00000021800799961408481260000011370122401253649576_" gradientUnits="userSpaceOnUse" x1="150.0516" y1="187.8433" x2="238.5665" y2="189.7457">
						<stop  offset="0" style="stop-color:#7316FF"/>
						<stop  offset="0.0149" style="stop-color:#7818FD"/>
						<stop  offset="0.1275" style="stop-color:#9828ED"/>
						<stop  offset="0.2496" style="stop-color:#B335E0"/>
						<stop  offset="0.3826" style="stop-color:#C73FD6"/>
						<stop  offset="0.532" style="stop-color:#D647CF"/>
						<stop  offset="0.7112" style="stop-color:#DE4BCB"/>
						<stop  offset="1" style="stop-color:#E14CCA"/>
					</linearGradient>
					<path style="fill:url(#SVGID_00000021800799961408481260000011370122401253649576_);" d="M202.33,125.545l-6.86,58.14
						l-2.97,25.11c0,23.46-19.01,42.47-42.46,42.47v-101.17c0-13.56,10.99-24.55,24.55-24.55H202.33z"/>
					<path style="opacity:0.17;fill:#001384;" d="M202.33,125.545l-0.54,4.6h-22.56c-13.56,0-24.55,10.99-24.55,24.55v96.32
						c-1.52,0.17-3.07,0.25-4.64,0.25v-101.17c0-13.56,10.99-24.55,24.55-24.55H202.33z"/>
					<path style="opacity:0.23;fill:#F7AEFF;" d="M195.47,183.685l-2.97,25.11c0,23.46-19.01,42.47-42.46,42.47v-9.42
						c44.25-10.69,35.02-58.45,35.02-58.45h7.44C192.5,183.395,193.62,183.455,195.47,183.685z"/>
				</g>
				<g>
					
						<linearGradient id="SVGID_00000006682260563014721440000008983874019818441913_" gradientUnits="userSpaceOnUse" x1="326.9446" y1="172.5316" x2="382.5493" y2="240.5702">
						<stop  offset="0" style="stop-color:#7316FF"/>
						<stop  offset="0.0149" style="stop-color:#7818FD"/>
						<stop  offset="0.1275" style="stop-color:#9828ED"/>
						<stop  offset="0.2496" style="stop-color:#B335E0"/>
						<stop  offset="0.3826" style="stop-color:#C73FD6"/>
						<stop  offset="0.532" style="stop-color:#D647CF"/>
						<stop  offset="0.7112" style="stop-color:#DE4BCB"/>
						<stop  offset="1" style="stop-color:#E14CCA"/>
					</linearGradient>
					<path style="fill:url(#SVGID_00000006682260563014721440000008983874019818441913_);" d="M349.99,125.545v125.72
						c-2.68,0-5.29-0.25-7.83-0.72c-19.72-3.67-34.64-20.97-34.64-41.75v-83.25H349.99z"/>
					<path style="opacity:0.23;fill:#F7AEFF;" d="M349.99,125.545v125.72c-2.68,0-5.29-0.25-7.83-0.72v-125H349.99z"/>
					<path style="opacity:0.17;fill:#001384;" d="M349.99,247.985v3.28c-23.46,0-42.47-19.01-42.47-42.47v-83.25h5.77v80.37
						C313.29,227.405,329.27,245.175,349.99,247.985z"/>
				</g>
				<g>
					
						<linearGradient id="SVGID_00000124845941647030482900000001539292868333199020_" gradientUnits="userSpaceOnUse" x1="192.5015" y1="141.705" x2="381.1744" y2="141.705">
						<stop  offset="0" style="stop-color:#E14CCA"/>
						<stop  offset="0.0683" style="stop-color:#D245D1"/>
						<stop  offset="0.2454" style="stop-color:#B034E2"/>
						<stop  offset="0.4263" style="stop-color:#9527EF"/>
						<stop  offset="0.6102" style="stop-color:#821DF8"/>
						<stop  offset="0.799" style="stop-color:#7718FD"/>
						<stop  offset="1" style="stop-color:#7316FF"/>
					</linearGradient>
					<path style="fill:url(#SVGID_00000124845941647030482900000001539292868333199020_);" d="M281.504,191.54h-89.003v-39.168
						c0-33.414,27.088-60.502,60.502-60.502h128.171v0C381.174,146.916,336.551,191.54,281.504,191.54z"/>
					<path style="opacity:0.17;fill:#001384;" d="M381.17,91.865v0.01c0,1.41-0.03,2.82-0.09,4.22H253
						c-33.41,0-60.5,27.09-60.5,60.5v-4.22c0-33.42,27.09-60.51,60.5-60.51H381.17z"/>
					<path style="opacity:0.23;fill:#F7AEFF;" d="M381.17,91.865v0.01c0,55.04-44.62,99.66-99.67,99.66h-89v-8.14h75.2
						c27.53,0,52.44-11.16,70.48-29.19c16.23-16.24,26.9-38.06,28.86-62.34H381.17z"/>
					<path style="opacity:0.23;fill:#F7AEFF;" d="M286.835,177.37c0,0,58.4-10.582,73.583-71.317
						C360.418,106.053,337.941,158.506,286.835,177.37z"/>
				</g>
			</g>
			<g>
				<g>
					
						<linearGradient id="SVGID_00000165226010193506771490000005162215344957967015_" gradientUnits="userSpaceOnUse" x1="277.0627" y1="307.3426" x2="297.3394" y2="307.3426" gradientTransform="matrix(0.9699 0.2435 -0.2435 0.9699 73.0956 -56.6665)">
						<stop  offset="0.005" style="stop-color:#2B1805"/>
						<stop  offset="1" style="stop-color:#5C350E"/>
					</linearGradient>
					<path style="fill:url(#SVGID_00000165226010193506771490000005162215344957967015_);" d="M266.931,319.322
						c-1.329-0.334-2.136-1.682-1.803-3.011c0.334-1.329,1.682-2.136,3.011-1.803c6.863,1.723,13.847-2.459,15.57-9.322
						c0.334-1.329,1.682-2.136,3.011-1.803c1.329,0.334,2.136,1.682,1.803,3.011C286.134,315.912,276.448,321.711,266.931,319.322z"
						/>
				</g>
			</g>
			<g>
				
					<linearGradient id="SVGID_00000150093298092078770070000006681473458044477853_" gradientUnits="userSpaceOnUse" x1="256.9104" y1="295.6263" x2="270.5036" y2="295.6263">
					<stop  offset="0" style="stop-color:#D9706D"/>
					<stop  offset="1" style="stop-color:#F34D3C"/>
				</linearGradient>
				<path style="fill:url(#SVGID_00000150093298092078770070000006681473458044477853_);" d="M256.91,302.423h6.797
					c3.754,0,6.797-3.043,6.797-6.797l0,0c0-3.754-3.043-6.797-6.797-6.797h-6.797V302.423z"/>
				
					<linearGradient id="SVGID_00000139255815040136027190000009406903737411069588_" gradientUnits="userSpaceOnUse" x1="230.9057" y1="295.6263" x2="244.4989" y2="295.6263">
					<stop  offset="0" style="stop-color:#D9706D"/>
					<stop  offset="1" style="stop-color:#F34D3C"/>
				</linearGradient>
				<path style="fill:url(#SVGID_00000139255815040136027190000009406903737411069588_);" d="M244.499,302.423h-6.797
					c-3.754,0-6.797-3.043-6.797-6.797l0,0c0-3.754,3.043-6.797,6.797-6.797h6.797V302.423z"/>
				<path style="opacity:0.36;fill:#6D1903;" d="M244.499,302.423h-6.797c-3.754,0-6.797-3.043-6.797-6.797l0,0
					c0-3.754,3.043-6.797,6.797-6.797h6.797V302.423z"/>
				
					<linearGradient id="SVGID_00000071551261692275579920000008876337865069599646_" gradientUnits="userSpaceOnUse" x1="250.4076" y1="308.545" x2="250.4076" y2="236.7283">
					<stop  offset="0" style="stop-color:#FF5F47"/>
					<stop  offset="1" style="stop-color:#FFAF66"/>
				</linearGradient>
				<path style="fill:url(#SVGID_00000071551261692275579920000008876337865069599646_);" d="M261.934,244.043v57.187
					c0,4.034-3.272,7.315-7.315,7.315h-8.423c-4.043,0-7.315-3.281-7.315-7.315v-57.187c0-4.043,3.272-7.315,7.315-7.315h8.423
					C258.662,236.728,261.934,240,261.934,244.043z"/>
				<path style="opacity:0.14;fill:#6D1903;" d="M250.301,236.728v71.817h-4.105c-4.043,0-7.315-3.281-7.315-7.315v-57.187
					c0-4.043,3.272-7.315,7.315-7.315H250.301z"/>
			</g>
			<g>
				
					<linearGradient id="SVGID_00000160903791784651345850000003556628509421909143_" gradientUnits="userSpaceOnUse" x1="231.5842" y1="248.9213" x2="268.9058" y2="248.9213">
					<stop  offset="0" style="stop-color:#0085B2"/>
					<stop  offset="0.5099" style="stop-color:#33FFD9"/>
					<stop  offset="1" style="stop-color:#0085B2"/>
				</linearGradient>
				
					<rect x="231.584" y="244.101" style="fill:url(#SVGID_00000160903791784651345850000003556628509421909143_);" width="37.322" height="9.641"/>
				
					<linearGradient id="SVGID_00000020373822854673998320000007081185485605679240_" gradientUnits="userSpaceOnUse" x1="162.2532" y1="276.2182" x2="233.9814" y2="241.4741">
					<stop  offset="0" style="stop-color:#0085B2"/>
					<stop  offset="1" style="stop-color:#33FFD9"/>
				</linearGradient>
				<path style="fill:url(#SVGID_00000020373822854673998320000007081185485605679240_);" d="M217.08,224.503h-45.1
					c-9.55,0-17.3,7.75-17.3,17.31v37.55c0,9.55,7.75,17.3,17.3,17.3h45.1c9.56,0,17.3-7.75,17.3-17.3v-37.55
					C234.38,232.253,226.64,224.503,217.08,224.503z M223.38,279.363c0,3.47-2.82,6.3-6.3,6.3h-45.1c-3.47,0-6.3-2.83-6.3-6.3
					v-37.55c0-3.48,2.83-6.31,6.3-6.31h45.1c3.48,0,6.3,2.83,6.3,6.31V279.363z"/>
				<g style="opacity:0.23;">
					<path style="fill:#001384;" d="M220.08,232.505h-45.1c-2.51,0-4.68,1.48-5.69,3.61c0.82-0.39,1.73-0.61,2.69-0.61h45.1
						c3.48,0,6.3,2.83,6.3,6.31v37.55c0,0.96-0.22,1.87-0.61,2.69c2.14-1.01,3.61-3.18,3.61-5.69v-37.55
						C226.38,235.335,223.56,232.505,220.08,232.505z M220.08,293.665h-45.1c-9.55,0-17.3-7.75-17.3-17.3v-37.55
						c0-4.02,1.37-7.72,3.66-10.65c-4.05,3.17-6.66,8.11-6.66,13.65v37.55c0,9.55,7.75,17.3,17.3,17.3h45.1
						c5.54,0,10.47-2.61,13.64-6.66C227.79,292.295,224.09,293.665,220.08,293.665z"/>
				</g>
				
					<linearGradient id="SVGID_00000073679642698513993270000009510599340462056630_" gradientUnits="userSpaceOnUse" x1="285.752" y1="280.5091" x2="342.1085" y2="224.1526">
					<stop  offset="0" style="stop-color:#0085B2"/>
					<stop  offset="1" style="stop-color:#33FFD9"/>
				</linearGradient>
				<path style="fill:url(#SVGID_00000073679642698513993270000009510599340462056630_);" d="M328.226,224.503h-45.1
					c-9.55,0-17.3,7.75-17.3,17.31v37.55c0,9.55,7.75,17.3,17.3,17.3h45.1c9.56,0,17.3-7.75,17.3-17.3v-37.55
					C345.526,232.253,337.786,224.503,328.226,224.503z M334.526,279.363c0,3.47-2.82,6.3-6.3,6.3h-45.1c-3.47,0-6.3-2.83-6.3-6.3
					v-37.55c0-3.48,2.83-6.31,6.3-6.31h45.1c3.48,0,6.3,2.83,6.3,6.31V279.363z"/>
				<g style="opacity:0.23;">
					<path style="fill:#001384;" d="M330.208,232.505h-45.1c-2.51,0-4.68,1.48-5.69,3.61c0.82-0.39,1.73-0.61,2.69-0.61h45.1
						c3.48,0,6.3,2.83,6.3,6.31v37.55c0,0.96-0.22,1.87-0.61,2.69c2.14-1.01,3.61-3.18,3.61-5.69v-37.55
						C336.508,235.335,333.688,232.505,330.208,232.505z M330.208,293.665h-45.1c-9.55,0-17.3-7.75-17.3-17.3v-37.55
						c0-4.02,1.37-7.72,3.66-10.65c-4.05,3.17-6.66,8.11-6.66,13.65v37.55c0,9.55,7.75,17.3,17.3,17.3h45.1
						c5.54,0,10.47-2.61,13.64-6.66C337.917,292.295,334.217,293.665,330.208,293.665z"/>
				</g>
				
					<path style="opacity:0.79;fill:none;stroke:#FFFFFF;stroke-width:2;stroke-linecap:round;stroke-linejoin:round;stroke-miterlimit:10;" d="
					M207.9,228.165h9.972c7.096,0,12.848,5.752,12.848,12.848v10.249"/>
				
					<path style="opacity:0.79;fill:none;stroke:#FFFFFF;stroke-width:2;stroke-linecap:round;stroke-linejoin:round;stroke-miterlimit:10;" d="
					M319.34,228.165h9.972c7.095,0,12.848,5.752,12.848,12.848v10.249"/>
			</g>
			<g>
				<g>
					
						<linearGradient id="SVGID_00000060024812857930187050000015221012829440924849_" gradientUnits="userSpaceOnUse" x1="177.6696" y1="260.1178" x2="212.6497" y2="260.1178">
						<stop  offset="0.005" style="stop-color:#2B1805"/>
						<stop  offset="1" style="stop-color:#5C350E"/>
					</linearGradient>
					<path style="fill:url(#SVGID_00000060024812857930187050000015221012829440924849_);" d="M212.65,252.113
						c0,9.66-7.83,17.49-17.49,17.49c-9.66,0-17.49-7.83-17.49-17.49c0-0.5,0.02-0.99,0.07-1.48h34.84
						C212.63,251.123,212.65,251.613,212.65,252.113z"/>
					<path style="fill:#FDFDFD;" d="M207.9,251.123c0,3.88-2.49,7.02-5.57,7.02c-3.08,0-5.58-3.14-5.58-7.02
						c0-0.17,0-0.33,0.02-0.49h11.11C207.9,250.793,207.9,250.953,207.9,251.123z"/>
				</g>
				<g>
					
						<linearGradient id="SVGID_00000000208183087917314850000014873709352993225377_" gradientUnits="userSpaceOnUse" x1="290.0319" y1="260.1178" x2="325.012" y2="260.1178">
						<stop  offset="0.005" style="stop-color:#2B1805"/>
						<stop  offset="1" style="stop-color:#5C350E"/>
					</linearGradient>
					<path style="fill:url(#SVGID_00000000208183087917314850000014873709352993225377_);" d="M325.012,252.113
						c0,9.66-7.83,17.49-17.49,17.49c-9.66,0-17.49-7.83-17.49-17.49c0-0.5,0.02-0.99,0.07-1.48h34.84
						C324.992,251.123,325.012,251.613,325.012,252.113z"/>
					<path style="fill:#FDFDFD;" d="M320.262,251.123c0,3.88-2.49,7.02-5.57,7.02c-3.08,0-5.58-3.14-5.58-7.02
						c0-0.17,0-0.33,0.02-0.49h11.11C320.262,250.793,320.262,250.953,320.262,251.123z"/>
				</g>
			</g>
			<g>
				<g>
					<g>
						
							<linearGradient id="SVGID_00000134223624073687751340000012893447173494272644_" gradientUnits="userSpaceOnUse" x1="188.9121" y1="208.3309" x2="220.5868" y2="208.3309">
							<stop  offset="0" style="stop-color:#5C2F13"/>
							<stop  offset="1" style="stop-color:#99763A"/>
						</linearGradient>
						<path style="fill:url(#SVGID_00000134223624073687751340000012893447173494272644_);" d="M192.909,215.455
							c-0.778,0-1.564-0.227-2.255-0.699c-1.823-1.247-2.29-3.737-1.042-5.56c3.423-5.003,9.083-7.99,15.138-7.99
							c6.055,0,11.714,2.986,15.138,7.988c1.248,1.823,0.781,4.313-1.042,5.56c-1.823,1.248-4.311,0.782-5.56-1.042
							c-1.932-2.822-5.123-4.507-8.536-4.507c-3.414,0-6.604,1.685-8.536,4.507C195.439,214.846,194.185,215.455,192.909,215.455z"
							/>
					</g>
				</g>
				<g>
					<g>
						
							<linearGradient id="SVGID_00000163763816102317605790000014998684945168203693_" gradientUnits="userSpaceOnUse" x1="278.8998" y1="208.3309" x2="310.5745" y2="208.3309">
							<stop  offset="0" style="stop-color:#5C2F13"/>
							<stop  offset="1" style="stop-color:#99763A"/>
						</linearGradient>
						<path style="fill:url(#SVGID_00000163763816102317605790000014998684945168203693_);" d="M282.897,215.455
							c-0.778,0-1.564-0.227-2.255-0.699c-1.823-1.247-2.29-3.737-1.042-5.56c3.423-5.003,9.082-7.99,15.138-7.99
							c6.055,0,11.714,2.986,15.138,7.988c1.248,1.823,0.781,4.313-1.041,5.56c-1.823,1.248-4.312,0.782-5.56-1.042
							c-1.932-2.822-5.122-4.507-8.536-4.507s-6.604,1.685-8.536,4.507C285.427,214.846,284.173,215.455,282.897,215.455z"/>
					</g>
				</g>
			</g>
		</g>
	</g>
</g>
</svg>
